<svg width="400" height="200" viewBox="0 0 400 200" fill="none" xmlns="http://www.w3.org/2000/svg">
<path d="M366.601 77.3193C366.601 80.4693 366.084 83.1468 365.049 85.3518C364.059 87.5118 362.889 89.3793 361.539 90.9543C360.189 92.5293 358.996 93.9693 357.961 95.2743C356.971 96.5343 356.476 97.8393 356.476 99.1893C356.476 100.764 357.196 102.182 358.636 103.442C360.076 104.657 361.854 105.917 363.969 107.222C366.084 108.527 368.199 110.057 370.314 111.812C372.429 113.567 374.206 115.704 375.646 118.224C377.086 120.744 377.806 123.849 377.806 127.539C377.806 132.669 376.344 137.057 373.419 140.702C370.539 144.302 366.871 147.047 362.416 148.937C357.961 150.827 353.371 151.772 348.646 151.772C346.081 151.772 343.314 151.479 340.344 150.894C337.374 150.309 334.584 149.387 331.974 148.127V131.522C334.899 133.322 337.329 134.604 339.264 135.369C341.199 136.134 343.291 136.517 345.541 136.517C347.566 136.517 349.164 136.247 350.334 135.707C351.549 135.167 352.404 134.379 352.899 133.344C353.394 132.309 353.641 131.049 353.641 129.564C353.641 126.864 353.011 124.592 351.751 122.747C350.536 120.857 349.006 119.214 347.161 117.819C345.361 116.379 343.539 114.984 341.694 113.634C339.849 112.239 338.296 110.709 337.036 109.044C335.821 107.334 335.214 105.287 335.214 102.902C335.214 100.472 335.799 98.4018 336.969 96.6918C338.184 94.9368 339.579 93.3168 341.154 91.8318C342.774 90.3018 344.169 88.7043 345.339 87.0393C346.554 85.3293 347.161 83.3268 347.161 81.0318C347.161 77.8818 345.969 75.6543 343.584 74.3493C341.199 73.0443 338.454 72.3918 335.349 72.3918C330.579 72.3918 327.451 73.8093 325.966 76.6443C324.526 79.4793 323.806 83.8668 323.806 89.8068V149.882H301.801V89.2668C301.801 81.4818 303.219 75.0918 306.054 70.0968C308.934 65.1018 312.939 61.4118 318.069 59.0268C323.244 56.5968 329.251 55.3818 336.091 55.3818C342.031 55.3818 347.296 56.2368 351.886 57.9468C356.476 59.6118 360.076 62.0868 362.686 65.3718C365.296 68.6118 366.601 72.5943 366.601 77.3193Z" fill="#091D72"/>
<path d="M200.253 149.882L230.763 59.2968H258.235L287.058 149.882H264.31L259.383 133.952H228.13L223.203 149.882H200.253ZM233.598 117.954H254.455L244.195 84.8118L233.598 117.954Z" fill="#091D72"/>
<path d="M131.281 149.882V59.2968H166.043C176.483 59.2968 184.763 61.8168 190.883 66.8568C197.003 71.8518 200.063 79.2543 200.063 89.0643C200.063 98.8293 197.003 106.254 190.883 111.339C184.763 116.379 176.483 118.899 166.043 118.899H157.045H155.5L153.58 118.899V149.882H131.281Z" fill="#091D72"/>
<path d="M74.26 152.042C67.78 152.042 61.7725 150.962 56.2375 148.802C50.7025 146.597 46.2025 143.177 42.7375 138.542C39.2725 133.862 37.36 127.787 37 120.317H58.33C58.33 123.062 59.0275 125.334 60.4225 127.134C61.8175 128.934 63.7075 130.262 66.0925 131.117C68.5225 131.972 71.2 132.399 74.125 132.399C76.465 132.399 78.6475 132.197 80.6725 131.792C82.7425 131.387 84.4075 130.667 85.6675 129.632C86.9275 128.597 87.5575 127.179 87.5575 125.379C87.5575 123.174 86.8825 121.532 85.5325 120.452C84.2275 119.372 81.8425 118.134 78.3775 116.739L58.6675 108.167C52.1875 105.377 47.1475 102.092 43.5475 98.3118C39.9475 94.5318 38.1475 89.3793 38.1475 82.8543C38.1475 75.2043 41.2525 69.0393 47.4625 64.3593C53.7175 59.6343 62.2675 57.2718 73.1125 57.2718C84.1375 57.2718 92.5975 59.8818 98.4925 65.1018C104.387 70.2768 107.695 77.6793 108.415 87.3093H87.22C86.68 84.3393 85.3525 81.8418 83.2375 79.8168C81.1675 77.7918 77.7925 76.7793 73.1125 76.7793C69.7375 76.7793 67.015 77.4093 64.945 78.6693C62.875 79.8843 61.84 81.4143 61.84 83.2593C61.84 84.9693 62.4925 86.3193 63.7975 87.3093C65.1475 88.2993 67.15 89.3793 69.805 90.5493L90.6625 99.3918C97.5925 102.407 102.745 105.939 106.12 109.989C109.54 114.039 111.25 118.899 111.25 124.569C111.25 130.644 109.788 135.729 106.863 139.824C103.983 143.874 99.775 146.934 94.24 149.004C88.75 151.029 82.09 152.042 74.26 152.042Z" fill="#091D72"/>
<path d="M187.5 84.8118C187.5 84.8118 161 84 155.5 54.5C150.445 69.7286 144.255 83.2896 126.5 84.8118C152.768 98.5754 152.98 118.892 155.5 127.134C160.5 97 163 90 187.5 84.8118Z" fill="white"/>
</svg>
